
<svg xmlns="http://www.w3.org/2000/svg" viewBox="0 0 384 512"><path fill="#d24726" d="M198.9 394.8c14.7-2.5 28.8-5.8 42.3-9.8V480c0 17.7-14.3 32-32 32h-48c-17.7 0-32-14.3-32-32V394.8c15.4 2.7 29.7 4.2 41.4 4.2 9.7 0 18.6-.9 28.3-4.2zM58.5 227.9c9.4 3.7 48.8 6.9 66 6.9 35.4 0 51.7-8.9 51.7-25.1 0-14.2-12.9-22.2-42.7-22.2-34.8 0-61 5.8-84 15.7-4.1 1.7-8.7-1.1-9-5.6-.8-11.5-.1-32.8-.1-43.8 0-3.1 2.4-5.3 5.5-5.7 37.4-5 80.9-8.7 107.3-8.7 62.6 0 108.8 19.9 108.8 63.8 0 30.2-23.1 55.1-82.4 64.3v.7c45.5 8.4 68.7 33.4 68.7 67.9 0 39.5-45.5 65.4-121.3 65.4-17.7 0-47.6-1.7-74.9-4.5-3.7-.4-6.3-3.5-6.3-7.2v-150c-10.5 6.4-27.1 14.8-47.7 23.9-1.7.8-3.2-1.9-1.6-2.8zM224 136V0H24C10.7 0 0 10.7 0 24v464c0 13.3 10.7 24 24 24h336c13.3 0 24-10.7 24-24V160H248c-13.2 0-24-10.8-24-24zm160-14.1v6.1H256V0h6.1c6.4 0 12.5 2.5 17 7l97.9 98c4.5 4.5 7 10.6 7 16.9z"/></svg>
